<svg height="512" viewBox="0 0 512 512" width="512" xmlns="http://www.w3.org/2000/svg"><g><g><path d="m384 32h48a24 24 0 0 1 24 24v416a24 24 0 0 1 -24 24h-56" fill="#ffda44"/><path d="m368 32h16a24 24 0 0 1 24 24v416a24 24 0 0 1 -24 24h-304a24 24 0 0 1 -24-24v-416a24 24 0 0 1 24-24h240" fill="#ab2300"/><path d="m368 112-24-16-24 16v-96h48z" fill="#ffda44"/><path d="m320 248v72h-144v-72" fill="#57565c"/><path d="m248 280-104-48 104-48 104 48z" fill="#2d2d30"/></g><g><path d="m432 24h-56v-8a8 8 0 0 0 -8-8h-48a8 8 0 0 0 -8 8v8h-232a32.03 32.03 0 0 0 -32 32v416a32.03 32.03 0 0 0 32 32h352a32.03 32.03 0 0 0 32-32v-416a32.03 32.03 0 0 0 -32-32zm-104 0h32v73.05l-11.56-7.71a8.026 8.026 0 0 0 -8.88 0l-11.56 7.71zm-240 464h-8a16.021 16.021 0 0 1 -16-16v-416a16.021 16.021 0 0 1 16-16h8zm312-16a16.021 16.021 0 0 1 -16 16h-280v-448h208v72a8.009 8.009 0 0 0 12.44 6.66l19.56-13.05 19.56 13.05a8.026 8.026 0 0 0 4.44 1.34 8.015 8.015 0 0 0 8-8v-72h8a16.021 16.021 0 0 1 16 16zm48 0a16.021 16.021 0 0 1 -16 16h-20.3a31.8 31.8 0 0 0 4.3-16v-416a31.8 31.8 0 0 0 -4.3-16h20.3a16.021 16.021 0 0 1 16 16z"/><path d="m344 456h-88a8 8 0 0 0 0 16h88a8 8 0 0 0 0-16z"/><path d="m376 456h-8a8 8 0 0 0 0 16h8a8 8 0 0 0 0-16z"/><path d="m432 56a8 8 0 0 0 -8 8v128a8 8 0 0 0 16 0v-128a8 8 0 0 0 -8-8z"/><path d="m432 208a8 8 0 0 0 -8 8v8a8 8 0 0 0 16 0v-8a8 8 0 0 0 -8-8z"/><path d="m359.94 231.2a7.963 7.963 0 0 0 -4.59-6.46l-104-48a7.928 7.928 0 0 0 -6.7 0l-104 48a7.992 7.992 0 0 0 0 14.52l27.35 12.63v68.11a8 8 0 0 0 8 8h144a8 8 0 0 0 8-8v-68.11l16-7.39v27.5a8 8 0 0 0 16 0v-40a4.661 4.661 0 0 0 -.06-.8zm-47.94 80.8h-128v-52.73l60.65 27.99a7.953 7.953 0 0 0 6.7 0l60.65-27.99zm-64-40.81-84.91-39.19 84.91-39.19 84.91 39.19z"/><path d="m360 296a8 8 0 0 0 -16 0v8a8 8 0 0 0 16 0z"/></g></g></svg>