<svg id="Layer_1" enable-background="new 0 0 64 64" height="512" viewBox="0 0 64 64" width="512" xmlns="http://www.w3.org/2000/svg"><g fill="#d6d7d8"><path d="m8.3 24h2.1c1.5-4 4.1-7.6 7.6-10.2v-2.5c-4.5 3.1-7.9 7.5-9.7 12.7z"/><path d="m46 11.3v2.5c10.1 7.7 12 22.1 4.3 32.2-1.6 2.1-3.6 4-5.9 5.4l1.4 1.4c11.5-7.6 14.6-23.1 7-34.6-1.8-2.7-4.1-5.1-6.8-6.9z"/><path d="m9 32c0-.7 0-1.3.1-2h-2c-.1.7-.1 1.3-.1 2 0 7.9 3.7 15.3 10 20l1.4-1.4c-5.9-4.4-9.4-11.3-9.4-18.6z"/></g><path d="m42 50c-.6 0-1.3.1-1.9.3l-3.1-3.7v-2.6h2v-2h-6v2h2v2h-10.9l.4-1.3c.1-.4.5-.7 1-.7h3.5v-2h-3.5c-1.3 0-2.5.9-2.9 2.1l-1.8 5.9c-3.3-.4-6.3 1.9-6.7 5.2s1.9 6.3 5.2 6.7 6.3-1.9 6.7-5.2c.3-2.5-1-5-3.3-6.2l.6-1.9 7.7 7.7c.4.4.9.6 1.4.6h3.7c.6 3.3 3.7 5.5 6.9 4.9 3.3-.6 5.5-3.7 4.9-6.9-.5-2.8-3-4.9-5.9-4.9zm-18 6c0 2.2-1.8 4-4 4s-4-1.8-4-4 1.8-4 4-4h.2l-1.2 3.7 1.9.6 1.1-3.7c1.3.7 2 2 2 3.4zm16.9-1.8c.2.2.1.5-.1.6 0 .2-.2.2-.3.2h-2.4c.2-.9.8-1.7 1.5-2.2zm-4.8.8h-2.6l2.7-6.1 2.1 2.4c-1.2.9-2 2.2-2.2 3.7zm-10.7-7h9l-2.8 6.3zm16.6 12c-1.8 0-3.4-1.2-3.9-3h2.4c1.4 0 2.5-1.1 2.5-2.5 0-.6-.2-1.2-.6-1.6l-.8-.9h.4c2.2 0 4 1.8 4 4s-1.8 4-4 4z" fill="#066b93"/><path d="m6 23v11h-1c-1.7 0-3 1.3-3 3s1.3 3 3 3 3-1.3 3-3v-6h9v3h-1c-1.7 0-3 1.3-3 3s1.3 3 3 3 3-1.3 3-3v-14zm0 14c0 .6-.4 1-1 1s-1-.4-1-1 .4-1 1-1h1zm11 0c0 .6-.4 1-1 1s-1-.4-1-1 .4-1 1-1h1zm-9-8v-4h9v4z" fill="#00b561"/><path d="m24 34c-1.7 0-3-1.3-3-3s1.3-3 3-3h1v-7h1c2.8 0 5 2.2 5 5v1h-2v-1c0-1.3-.8-2.4-2-2.8v7.8c0 1.7-1.3 3-3 3zm0-4c-.6 0-1 .4-1 1s.4 1 1 1 1-.4 1-1v-1z" fill="#00b561"/><path d="m59.6 30.5-1.6-.5-3.8-4.6c-.8-.9-1.9-1.4-3.1-1.4h-6c-1.3 0-2.6.7-3.3 1.8l-2.8 4.2-3.4.7c-.9.2-1.6 1-1.6 2v2.3c0 1.1.9 2 2 2h20 3c1.1 0 2-.9 2-2v-2.5c0-.9-.6-1.7-1.4-2z" fill="#20202b"/><circle cx="54" cy="37" fill="#111117" r="2"/><circle cx="41" cy="37" fill="#111117" r="2"/><path d="m54.2 25.4c-.8-.9-1.9-1.4-3.1-1.4h-6c-1.3 0-2.6.7-3.3 1.8l-2.8 4.2h19z" fill="#3a3a51"/><path d="m47 21h2v9h-2z" fill="#20202b"/><path d="m43 3h-22c-2.2 0-4 1.8-4 4v12h30v-12c0-2.2-1.8-4-4-4z" fill="#aa896f"/><path d="m43 11h-22c-2.2 0-4 1.8-4 4v1h30v-1c0-2.2-1.8-4-4-4z" fill="#ceb49f"/><path d="m17 16h30v3h-30z" fill="#8e6c55"/><path d="m28 7h-5c-1.1 0-2 .9-2 2v2h9v-2c0-1.1-.9-2-2-2z" fill="#f4e8cb"/><path d="m41 7h-5c-1.1 0-2 .9-2 2v2h9v-2c0-1.1-.9-2-2-2z" fill="#f4e8cb"/></svg>